<?xml version="1.0" encoding="UTF-8" standalone="no"?>
<!DOCTYPE svg PUBLIC "-//W3C//DTD SVG 1.1//EN" "http://www.w3.org/Graphics/SVG/1.1/DTD/svg11.dtd">
<svg
   xmlns:svg="http://www.w3.org/2000/svg"
   xmlns="http://www.w3.org/2000/svg"
   version="1.0"
   width="440.57001"
   height="241.56"
   viewbox="0 0 440.57001 241.56"
   id="svg2">
  <defs
     id="defs4" />
  <path
     d="m 10.002,116.99782 c 0,-28.490228 33.187381,-30.427122 55.076931,-30.427122 l 5.456339,0 0,-2.363986 c 0,-10.752626 -8.377086,-16.43321 -20.07077,-16.43321 -9.093898,0 -17.524478,3.63756 -23.312477,9.093899 L 15.683012,65.408661 c 9.650232,-9.821411 23.323176,-14.058098 37.156601,-14.058098 37.381273,0 37.381273,27.00353 37.381273,39.414027 l 0,50.32671 -19.685616,0 0,-12.06814 -0.556333,0 c -6.173152,9.86421 -16.369017,14.21901 -28.052003,14.21901 -16.262031,0 -31.924934,-8.93385 -31.924934,-26.24435 m 21.889549,-1.6476 c 0,8.04542 8.216605,11.46901 15.320545,11.46901 14.94609,0 22.060729,-7.83146 22.060729,-20.07078 l 0,-4.91113 -4.579046,0 c -12.014645,0 -32.802228,0.94234 -32.802228,13.5129"
     id="path3846"
     style="fill:#000000;fill-opacity:1;fill-rule:nonzero;stroke:none" />
  <path
     d="m 227.10011,182.60227 0,-129.10084 20.77689,0 0,13.169678 0.38515,0 c 6.34433,-10.580591 17.86684,-15.320545 30.10615,-15.320545 26.95004,0 43.15858,20.060499 43.15858,45.972761 0,25.858346 -17.31051,45.918846 -42.28128,45.918846 -16.42251,0 -25.13126,-7.66028 -29.7103,-13.2878 l -0.55634,0 0,52.6479 -21.87885,0 m 21.16204,-85.278946 c 0,13.672946 9.65023,26.243496 25.69829,26.243496 16.03736,0 25.68759,-12.57055 25.68759,-26.243496 0,-13.726866 -9.65023,-26.297416 -25.68759,-26.297416 -16.04806,0 -25.69829,12.57055 -25.69829,26.297416"
     id="path3848"
     style="fill:#000000;fill-opacity:1;fill-rule:nonzero;stroke:none" />
  <path
     d="m 335.42449,97.323324 c 0,-27.559863 21.16204,-45.972761 47.57714,-45.972761 26.4579,0 47.56644,18.412898 47.56644,45.972761 0,27.505946 -21.10854,45.918846 -47.56644,45.918846 -26.4151,0 -47.57714,-18.4129 -47.57714,-45.918846 m 21.87886,0 c 0,13.672946 9.65023,26.243496 25.69828,26.243496 16.09086,0 25.74109,-12.57055 25.74109,-26.243496 0,-13.726866 -9.65023,-26.297416 -25.74109,-26.297416 -16.04805,0 -25.69828,12.57055 -25.69828,26.297416"
     id="path3850"
     style="fill:#000000;fill-opacity:1;fill-rule:nonzero;stroke:none" />
  <path
     d="M 147.71572,115.89628 97.324826,87.073965 228.64073,10.000498 157.30176,105.92508 218.05971,140.76007 59.729579,231.55954 147.71572,115.89628 m -37.64874,72.00228 79.65186,-47.73762 -29.65681,-16.32622 -49.99505,64.06384 M 124.33905,86.795799 144.02467,98.585771 180.78542,51.94969 124.33905,86.795799 z"
     id="path3852"
     style="fill:#be0027;fill-opacity:1;fill-rule:nonzero;stroke:none" />
</svg>
